<?xml version="1.0" encoding="utf-8"?>
<!-- Generator: Adobe Illustrator 27.0.1, SVG Export Plug-In . SVG Version: 6.00 Build 0)  -->
<svg version="1.1" xmlns="http://www.w3.org/2000/svg" xmlns:xlink="http://www.w3.org/1999/xlink" x="0px" y="0px"
	 viewBox="0 0 25 25" style="enable-background:new 0 0 25 25;" xml:space="preserve">
<style type="text/css">
	.st0{display:none;}
	.st1{display:inline;}
	.st2{fill:#00A5CF;}
	.st3{fill:#D62839;}
	.st4{fill:#466B61;stroke:#466B61;stroke-width:0.75;stroke-linecap:round;stroke-linejoin:round;stroke-miterlimit:10;}
</style>
<g id="Layer_1" class="st0">
	<g class="st1">
		<path class="st2" d="M17.55,10.41c3.89-0.03,7.21,3.2,7.19,7.22c-0.02,3.73-2.92,7.08-7.22,7.22c-3.89-0.26-7.17-2.77-7.19-7.31
			C10.33,13.63,13.58,10.38,17.55,10.41z M16.93,15.92c-0.44,0-0.88,0-1.32,0c-0.15,0-0.29,0.04-0.32,0.21
			c-0.04,0.2,0.07,0.29,0.24,0.34c0.1,0.03,0.21,0.04,0.31,0.05c0.35,0.02,0.52,0.19,0.51,0.54c0,0.14-0.03,0.28-0.05,0.42
			c-0.19,1.13-0.39,2.27-0.57,3.4c-0.14,0.83,0.34,1.47,1.16,1.54c0.39,0.03,0.78,0.03,1.17-0.01c0.54-0.06,1.01-0.3,1.34-0.75
			c0.07-0.09,0.05-0.24,0.07-0.36c-0.11,0-0.23-0.02-0.34-0.01c-0.07,0.01-0.12,0.07-0.19,0.1c-0.12,0.05-0.23,0.11-0.36,0.13
			c-0.3,0.07-0.55-0.1-0.58-0.4c-0.02-0.23-0.03-0.46,0.01-0.68c0.12-0.72,0.27-1.44,0.4-2.16c0.11-0.61,0.23-1.21,0.31-1.83
			c0.05-0.41-0.11-0.54-0.52-0.54C17.77,15.92,17.35,15.92,16.93,15.92z M17.72,15.24c0.59,0.03,1.27-0.41,1.27-1.24
			c0.01-0.76-0.58-1.26-1.26-1.26c-0.71,0-1.23,0.54-1.26,1.24C16.45,14.65,17.06,15.28,17.72,15.24z"/>
		<path class="st2" d="M21.52,10.29c-0.11-0.03-0.2-0.05-0.29-0.08c-0.65-0.23-1.3-0.47-1.95-0.69c-0.17-0.06-0.23-0.14-0.23-0.32
			c0.01-2.04,0-4.08,0-6.11c0-0.41-0.05-0.46-0.47-0.46c-5.12,0-10.23,0-15.35,0c-0.07,0-0.14,0-0.21,0.01
			C2.88,2.65,2.79,2.71,2.8,2.88c0.01,0.08,0,0.17,0,0.26c0,5.51,0,11.02,0,16.52c0,0.04,0,0.09,0,0.13c0,0.43,0.07,0.5,0.5,0.5
			c2.01,0,4.02,0,6.03,0c0.28,0,0.46,0.1,0.58,0.36c0.31,0.64,0.65,1.26,0.98,1.9c0.04,0.07,0.06,0.15,0.11,0.26
			c-0.1,0-0.17,0.01-0.24,0.01c-2.93,0-5.86,0-8.78,0c-0.57,0-1.09-0.15-1.42-0.67c-0.23-0.35-0.27-0.76-0.29-1.17
			c-0.01-0.11,0-0.23,0-0.34c0-6.13,0-12.27,0-18.4c0-0.31,0.04-0.63,0.12-0.93c0.17-0.65,0.79-1.12,1.46-1.15c0.05,0,0.1,0,0.15,0
			c5.98,0,11.97,0,17.95,0c0.57,0,1.06,0.19,1.36,0.69c0.12,0.2,0.21,0.47,0.21,0.7c0.01,2.86,0.01,5.71,0.01,8.57
			C21.53,10.16,21.52,10.21,21.52,10.29z"/>
		<path class="st2" d="M10.84,9.42c-1.91,0-3.82-0.01-5.73,0.01c-0.55,0-0.82-0.27-0.85-0.89C4.25,7.99,4.6,7.64,5.12,7.63
			c0.01,0,0.03,0,0.04,0c3.72-0.01,7.44-0.02,11.15-0.02c0.18,0,0.36,0.01,0.53,0.03c0.35,0.03,0.57,0.22,0.62,0.57
			c0.03,0.2,0.04,0.41,0.03,0.62c-0.01,0.32-0.21,0.52-0.53,0.57c-0.17,0.02-0.34,0.04-0.51,0.04C14.59,9.42,12.72,9.42,10.84,9.42
			C10.84,9.42,10.84,9.42,10.84,9.42z"/>
		<path class="st2" d="M10.91,4.59c1.93,0,3.86,0,5.79,0c0.53,0,0.78,0.24,0.81,0.77c0,0.08,0,0.16,0,0.24
			c0,0.51-0.27,0.8-0.78,0.81c-0.33,0.01-0.65-0.02-0.98-0.02c-3.5,0-7,0-10.49,0c-0.11,0-0.23,0-0.34-0.02
			C4.55,6.3,4.38,6.14,4.33,5.78C4.3,5.58,4.29,5.37,4.32,5.17c0.04-0.33,0.36-0.57,0.71-0.57C6.99,4.59,8.95,4.59,10.91,4.59z"/>
		<path class="st2" d="M12.56,10.73c-0.1,0.11-0.19,0.23-0.29,0.33c-0.39,0.41-0.78,0.81-1.16,1.22c-0.13,0.14-0.28,0.2-0.47,0.2
			c-1.85,0-3.7,0-5.56,0c-0.5,0-0.75-0.29-0.78-0.79c-0.04-0.71,0.24-1.06,1.05-1.05c2.31,0.03,4.62,0.01,6.92,0.01
			c0.09,0,0.18,0,0.27,0C12.55,10.69,12.56,10.71,12.56,10.73z"/>
		<path class="st2" d="M10.22,13.74c-0.09,0.22-0.16,0.41-0.22,0.59c-0.13,0.35-0.25,0.69-0.4,1.04c-0.03,0.07-0.13,0.16-0.2,0.16
			c-1.48,0.01-2.96,0.01-4.44,0c-0.3,0-0.51-0.18-0.6-0.46C4.33,15,4.31,14.92,4.31,14.84c-0.05-0.88,0.19-1.13,1.07-1.13
			c1.49,0,2.98,0,4.46,0C9.96,13.72,10.07,13.73,10.22,13.74z"/>
	</g>
</g>
<g id="Layer_2" class="st0">
	<g class="st1">
		<g>
			<path class="st3" d="M20.22,16.87c0-1.82,0.01-3.65-0.01-5.47c0-0.46,0-1.04-0.63-1.06c-0.67-0.01-0.72,0.57-0.76,1.09
				c-0.02,0.29-0.01,0.57-0.01,0.86c0,3.04,0,6.08,0,9.12c0,1.52-0.28,1.81-1.82,1.82c-2.97,0.02-5.94,0.02-8.9,0
				c-1.62-0.01-1.88-0.28-1.88-1.87c-0.01-3.25,0-6.51-0.01-9.76c0-0.54-0.01-1.22-0.7-1.25c-0.77-0.04-0.71,0.67-0.71,1.19
				c-0.01,3.5-0.02,7.01,0.01,10.51c0.01,1.62,0.88,2.54,2.53,2.57c3.47,0.06,6.94,0.06,10.4,0c1.66-0.03,2.47-0.95,2.5-2.59
				C20.25,20.31,20.22,18.59,20.22,16.87z"/>
			<path class="st3" d="M12.49,25c-1.7,0-3.44-0.01-5.18-0.04c-1.8-0.03-2.85-1.09-2.86-2.9c-0.03-3.3-0.02-6.65-0.01-9.89l0-0.62
				l0-0.1c0-0.39,0-0.88,0.32-1.19c0.18-0.17,0.44-0.26,0.75-0.24c1.02,0.05,1.02,1.05,1.02,1.59c0,1.65,0,3.31,0,4.96
				c0,1.6,0,3.2,0,4.8c0,1.41,0.12,1.53,1.55,1.53c3.13,0.02,6.04,0.02,8.9,0c1.35-0.01,1.48-0.15,1.49-1.48
				c0.01-2.06,0-4.12,0-6.18c0-0.98,0-1.96,0-2.94l0-0.19c0-0.22,0-0.46,0.01-0.69c0.03-0.46,0.09-1.4,1.07-1.4
				c0.01,0,0.02,0,0.03,0c0.95,0.02,0.96,0.94,0.96,1.38c0.01,1.35,0.01,2.7,0.01,4.01l0,1.47c0,0.48,0,0.96,0.01,1.44
				c0.01,1.22,0.01,2.47-0.01,3.71c-0.03,1.85-1.04,2.89-2.83,2.93C16.02,24.98,14.27,25,12.49,25z M5.43,10.68
				c-0.07,0-0.16,0.01-0.2,0.06c-0.11,0.11-0.11,0.45-0.11,0.7l0,0.1l0,0.62c-0.01,3.24-0.02,6.59,0.01,9.89
				c0.01,1.46,0.75,2.21,2.2,2.24c3.56,0.06,7.05,0.06,10.39,0c1.43-0.03,2.14-0.77,2.17-2.26c0.02-1.23,0.02-2.48,0.01-3.7
				c0-0.48,0-0.96-0.01-1.45c0,0,0,0,0,0l0-1.47c0-1.31,0-2.67-0.01-4c0-0.66-0.09-0.72-0.3-0.72c-0.28,0-0.37,0.11-0.42,0.77
				c-0.01,0.21-0.01,0.42-0.01,0.64l0,0.19c0,0.98,0,1.96,0,2.94c0,2.06,0,4.12,0,6.18c0,1.7-0.45,2.15-2.16,2.16
				c-2.86,0.02-5.77,0.02-8.91,0c-1.8-0.01-2.21-0.42-2.22-2.21c0-1.6,0-3.2,0-4.8c0-1.65,0-3.31,0-4.96c0-0.72-0.08-0.9-0.38-0.92
				C5.46,10.68,5.45,10.68,5.43,10.68z"/>
		</g>
		<g>
			<path class="st3" d="M16.07,3.44c-0.01-1.35-0.73-2.42-1.82-2.86c-1.75-0.71-3.44,0.21-4.03,2.33c-0.28,0.99-0.7,1.28-1.67,0.91
				C7.81,3.53,7.04,3.36,6.27,3.17C5.83,3.07,5.36,3.09,5.19,3.59C5,4.15,5.44,4.34,5.86,4.5C6.12,4.6,6.4,4.68,6.68,4.75
				c3.54,1,7.09,2,10.63,3c0.48,0.14,0.96,0.28,1.45,0.37c0.41,0.08,0.83,0.02,0.93-0.48c0.1-0.48-0.21-0.73-0.62-0.86
				c-0.65-0.2-1.3-0.38-1.96-0.57c-1.59-0.46-1.59-0.46-1.21-2.02C15.98,3.89,16.04,3.58,16.07,3.44z"/>
			<path class="st3" d="M19.03,8.49c-0.1,0-0.21-0.01-0.33-0.03c-0.45-0.08-0.9-0.21-1.33-0.33l-0.16-0.04c-3.54-1-7.09-2-10.63-3
				L6.49,5.05c-0.25-0.07-0.5-0.14-0.75-0.24C5.39,4.68,4.56,4.37,4.87,3.48c0.1-0.28,0.43-0.89,1.48-0.64l0.34,0.08
				C7.35,3.08,8.02,3.25,8.67,3.5c0.37,0.14,0.63,0.17,0.79,0.09C9.63,3.5,9.77,3.25,9.89,2.81c0.33-1.18,1-2.07,1.9-2.51
				c0.78-0.38,1.7-0.4,2.59-0.04c1.24,0.51,2.02,1.72,2.03,3.17c0,0.02,0,0.05-0.01,0.07c-0.01,0.04-0.02,0.08-0.03,0.14
				c-0.03,0.16-0.08,0.4-0.14,0.64c-0.15,0.6-0.25,1.03-0.17,1.17c0.08,0.14,0.53,0.27,1.15,0.45c0.22,0.07,0.45,0.13,0.68,0.19
				c0.42,0.12,0.86,0.24,1.29,0.38c0.95,0.29,0.91,0.97,0.85,1.25C19.92,8.21,19.55,8.49,19.03,8.49z M5.89,3.46
				c-0.29,0-0.35,0.16-0.38,0.25C5.44,3.89,5.44,3.98,5.98,4.19C6.2,4.27,6.43,4.34,6.67,4.4l0.1,0.03c3.54,1,7.09,2,10.63,3
				l0.16,0.04c0.42,0.12,0.85,0.24,1.27,0.32c0.47,0.09,0.52-0.1,0.54-0.22c0.03-0.12,0.07-0.32-0.39-0.46
				c-0.42-0.13-0.85-0.25-1.27-0.37c-0.23-0.06-0.45-0.13-0.68-0.19c-1.75-0.51-1.86-0.69-1.44-2.41c0.06-0.23,0.1-0.45,0.13-0.62
				c0.01-0.04,0.01-0.08,0.02-0.11c-0.02-1.16-0.63-2.12-1.61-2.52C13.41,0.59,12.7,0.6,12.09,0.9c-0.72,0.35-1.27,1.1-1.55,2.09
				c-0.12,0.43-0.32,0.96-0.78,1.2C9.41,4.36,8.99,4.34,8.42,4.12c-0.6-0.23-1.26-0.39-1.89-0.54L6.19,3.5
				C6.07,3.47,5.97,3.46,5.89,3.46z"/>
		</g>
		<g>
			<path class="st3" d="M10.28,16.59C10.28,16.59,10.28,16.59,10.28,16.59c0-1.04,0.01-2.07-0.01-3.11
				c-0.01-0.49-0.14-0.99-0.74-0.98c-0.56,0.01-0.64,0.5-0.64,0.95c-0.01,2.07-0.01,4.14,0,6.22c0,0.48,0.09,1.01,0.72,0.97
				c0.6-0.04,0.67-0.56,0.67-1.04C10.29,18.59,10.28,17.59,10.28,16.59z"/>
			<path class="st3" d="M9.54,20.97c-0.27,0-0.49-0.08-0.66-0.24c-0.3-0.28-0.34-0.72-0.34-1.07c-0.01-2.05-0.01-4.14,0-6.22
				c0.01-1.04,0.53-1.27,0.97-1.28c0.39-0.01,1.07,0.15,1.09,1.31c0.01,0.74,0.01,1.49,0.01,2.21c0,0.28,0,0.56,0,0.85
				c0,0.02,0,0.04,0,0.05c0,0.29,0,0.58,0,0.87c0,0.7,0,1.42-0.01,2.13c0,0.33-0.02,1.32-0.99,1.38C9.6,20.97,9.57,20.97,9.54,20.97
				z M9.56,12.83c-0.01,0-0.02,0-0.03,0c-0.14,0-0.31,0.01-0.31,0.61c-0.01,2.08-0.01,4.17,0,6.21c0,0.31,0.05,0.5,0.13,0.58
				c0.05,0.04,0.13,0.06,0.24,0.05c0.2-0.01,0.35-0.07,0.36-0.71c0.01-0.71,0.01-1.43,0.01-2.12c0-0.27,0-0.54,0-0.82
				c0-0.02,0-0.04,0-0.06c0-0.3,0-0.6,0-0.9c0-0.72,0.01-1.47-0.01-2.2C9.92,12.87,9.72,12.83,9.56,12.83z"/>
		</g>
		<g>
			<path class="st3" d="M16.13,16.56C16.13,16.56,16.13,16.56,16.13,16.56c0-1.03,0.02-2.07,0-3.1c-0.01-0.44-0.08-0.92-0.64-0.95
				c-0.56-0.03-0.72,0.43-0.73,0.87c-0.02,2.14-0.02,4.28,0,6.42c0,0.41,0.15,0.82,0.64,0.85c0.56,0.02,0.71-0.42,0.72-0.87
				C16.15,18.7,16.13,17.63,16.13,16.56z"/>
			<path class="st3" d="M15.45,20.97c-0.02,0-0.04,0-0.06,0c-0.6-0.03-0.96-0.47-0.96-1.18c-0.02-2.37-0.02-4.47,0-6.42
				c0-0.42,0.12-0.75,0.35-0.96c0.13-0.12,0.36-0.26,0.73-0.24c0.93,0.05,0.95,0.98,0.96,1.28c0.01,0.74,0.01,1.49,0.01,2.22
				c0,0.3,0,0.59,0,0.89c0,0.02,0,0.04,0,0.05c0,0.29,0,0.58,0,0.87c0,0.75,0.01,1.53-0.01,2.29c-0.01,0.43-0.12,0.75-0.34,0.96
				C15.95,20.89,15.72,20.97,15.45,20.97z M15.44,12.84c-0.13,0-0.18,0.05-0.2,0.06c-0.09,0.08-0.14,0.25-0.14,0.47
				c-0.02,1.95-0.02,4.05,0,6.41c0,0.5,0.22,0.51,0.32,0.51c0.16,0.01,0.22-0.04,0.24-0.06c0.08-0.08,0.13-0.24,0.13-0.48
				c0.01-0.76,0.01-1.53,0.01-2.28c0-0.31,0-0.62,0-0.93c0-0.02,0-0.04,0-0.05c0-0.28,0-0.56,0-0.84c0-0.72,0.01-1.47-0.01-2.2
				c-0.01-0.61-0.17-0.61-0.32-0.62C15.46,12.84,15.45,12.84,15.44,12.84z"/>
		</g>
	</g>
</g>
<g id="Layer_3">
	<g>
		<path class="st4" d="M0.76,4.48c0.19-0.35,0.49-0.45,0.87-0.45c3.69,0.01,7.38,0,11.07,0c0.1,0,0.19,0,0.29,0.01
			c0.34,0.05,0.58,0.24,0.58,0.59c0,0.35-0.24,0.54-0.58,0.58c-0.14,0.02-0.29,0.01-0.43,0.01c-3.32,0-6.64,0-9.96,0
			c-0.19,0-0.38,0-0.61,0c0,5.89,0,11.75,0,17.64c5.93,0,11.86,0,17.83,0c0-0.19,0-0.36,0-0.53c0-3.04,0-6.08,0-9.11
			c0-0.16-0.05-0.37,0.03-0.46c0.16-0.18,0.39-0.41,0.59-0.42c0.17-0.01,0.38,0.26,0.52,0.44c0.07,0.09,0.02,0.28,0.02,0.42
			c0,3.36,0,6.71,0,10.07c0,0.75-0.14,0.9-0.89,0.9c-6.15,0-12.3,0-18.44,0.01c-0.38,0-0.69-0.08-0.89-0.42
			C0.76,17.33,0.76,10.9,0.76,4.48z"/>
		<path class="st4" d="M24.24,4.54c-0.14,0.22-0.22,0.43-0.37,0.58c-4.26,4.25-8.52,8.5-12.8,12.74c-0.17,0.17-0.42,0.29-0.66,0.35
			c-1.26,0.35-2.52,0.69-3.78,1.01c-0.69,0.18-1.08-0.19-0.9-0.87c0.35-1.35,0.71-2.7,1.08-4.05c0.04-0.16,0.16-0.31,0.28-0.43
			c4.26-4.25,8.53-8.5,12.79-12.75c0.43-0.42,0.71-0.42,1.14,0c0.95,0.94,1.9,1.88,2.84,2.83C24.01,4.13,24.1,4.33,24.24,4.54z
			 M20.36,2.32c-0.11,0.15-0.21,0.31-0.35,0.45c-3.5,3.49-6.97,7.01-10.52,10.44c-1.11,1.07-1.93,2.2-2.14,3.73
			c-0.04,0.27-0.13,0.53-0.21,0.88c0.93-0.26,1.76-0.47,2.58-0.72c0.26-0.08,0.53-0.22,0.72-0.41c3.96-3.93,7.91-7.87,11.86-11.8
			c0.11-0.11,0.21-0.23,0.31-0.34C21.88,3.82,21.17,3.12,20.36,2.32z"/>
	</g>
</g>
</svg>
